<?xml version="1.0" standalone="no"?>
<!DOCTYPE svg PUBLIC "-//W3C//DTD SVG 20010904//EN"
 "http://www.w3.org/TR/2001/REC-SVG-20010904/DTD/svg10.dtd">
<svg version="1.0" xmlns="http://www.w3.org/2000/svg"
 width="500.000000pt" height="500.000000pt" viewBox="0 0 500.000000 500.000000"
 preserveAspectRatio="xMidYMid meet">

<g transform="translate(0.000000,500.000000) scale(0.100000,-0.100000)"
fill="#000000" stroke="none">
<path d="M1505 3537 c-17 -6 -33 -15 -37 -21 -4 -6 -8 -7 -8 -3 0 4 -9 3 -20
-3 -11 -6 -19 -14 -16 -18 2 -4 -6 -8 -17 -8 -31 -2 -139 -67 -232 -140 -396
-309 -566 -838 -426 -1324 81 -282 257 -522 503 -687 148 -99 352 -183 379
-156 9 9 6 11 -12 7 -14 -2 -10 1 9 9 l34 13 -27 14 c-15 8 -41 13 -59 12 -23
-2 -27 0 -16 7 8 5 19 8 25 5 5 -3 -1 3 -15 13 -14 10 -60 48 -102 86 -127
111 -225 233 -308 384 -28 51 -55 95 -60 98 -5 3 -45 7 -90 8 -77 3 -119 19
-94 35 6 4 10 24 9 45 -2 46 14 57 79 57 53 0 52 -2 31 95 -9 39 -18 133 -22
210 -7 168 10 295 62 452 60 181 137 315 259 453 l66 75 -67 6 c-38 3 -58 6
-46 7 12 1 25 7 28 12 3 6 23 11 43 12 l37 1 -33 4 c-57 7 -24 23 51 24 44 1
63 4 48 8 -14 4 -40 6 -58 5 -18 0 -33 3 -33 8 0 5 30 9 68 8 87 -2 104 1 67
10 l-30 8 30 2 c21 2 13 5 -25 10 l-55 7 63 1 c34 1 62 6 62 11 0 5 8 12 18
14 9 3 -4 5 -30 6 -30 1 -48 6 -48 13 0 8 -3 9 -11 1 -6 -6 -26 -7 -51 -3 -23
5 -48 6 -55 3 -7 -3 -13 -1 -13 5 0 5 44 14 98 19 63 7 81 11 50 12 -52 1 -78
21 -29 21 17 0 31 5 31 10 0 6 9 10 20 10 11 0 20 4 20 9 0 5 8 11 18 13 12 3
10 5 -8 9 -14 3 -39 1 -55 -4z m-87 -154 c2 -9 -10 -13 -42 -13 -25 0 -46 4
-46 10 0 5 6 7 14 4 8 -3 17 0 21 6 9 14 47 9 53 -7z m-111 -39 c-3 -3 -12 -4
-19 -1 -8 3 -5 6 6 6 11 1 17 -2 13 -5z m178 -2034 c3 -5 1 -10 -4 -10 -6 0
-11 5 -11 10 0 6 2 10 4 10 3 0 8 -4 11 -10z"/>
<path d="M1408 3293 c7 -3 16 -2 19 1 4 3 -2 6 -13 5 -11 0 -14 -3 -6 -6z"/>
<path d="M2330 3198 c-241 -113 -318 -152 -314 -160 3 -4 -1 -8 -8 -8 -7 0 57
-41 142 -91 85 -51 158 -95 163 -98 10 -10 -21 -94 -39 -104 -21 -12 -7 -27
25 -27 15 0 33 -6 40 -12 11 -11 12 -9 4 7 -9 21 -9 40 2 135 8 77 7 101 -7
117 -21 26 5 36 73 28 l64 -8 -42 -16 c-49 -19 -64 -31 -38 -31 15 0 16 -3 7
-12 -9 -9 -7 -14 6 -24 15 -12 15 -13 -8 -14 -24 -1 -24 -1 -6 -15 15 -11 17
-17 7 -29 -8 -10 -9 -16 -1 -21 6 -3 8 -11 4 -16 -3 -6 2 -16 11 -23 16 -12
16 -13 0 -29 -14 -15 -14 -17 -1 -17 12 0 14 -5 6 -24 -5 -13 -6 -27 -3 -30 4
-3 0 -6 -8 -6 -7 0 4 -12 26 -26 22 -15 51 -37 65 -49 14 -13 54 -38 89 -56
35 -19 66 -42 69 -51 5 -19 37 -24 47 -8 3 6 17 10 31 10 32 0 31 16 -3 34
-20 11 -23 15 -10 16 30 0 18 18 -20 28 l-38 10 43 1 c43 1 51 8 31 28 -8 8
-4 15 17 27 27 14 27 15 7 16 -13 0 -23 5 -23 10 0 6 -6 10 -14 10 -8 0 -21
13 -29 30 -14 28 -14 30 17 54 30 25 31 25 9 32 -24 7 -31 24 -10 24 6 0 1 9
-13 19 -20 16 -22 22 -12 34 10 12 10 16 0 20 -7 3 -2 6 12 7 24 1 24 1 6 15
-11 8 -17 18 -13 21 3 3 2 17 -4 30 -7 19 -5 26 6 30 19 8 19 24 0 24 -18 0
-20 21 -3 38 9 9 9 12 0 12 -8 0 -10 10 -7 31 l6 31 -45 -6 c-44 -7 -44 -6
-67 34 -12 22 -26 40 -31 40 -4 0 -8 6 -8 14 0 26 -21 29 -62 10 -38 -17 -41
-17 -53 -1 -16 22 -17 21 -95 -15z m83 -7 c-21 -15 -13 -40 14 -44 25 -4 25
-4 -6 -6 -27 -1 -31 -4 -22 -15 9 -10 8 -15 -4 -20 -22 -8 -45 3 -38 20 3 9
-2 14 -13 15 -11 0 -14 3 -6 6 6 2 12 11 12 19 0 8 6 14 13 15 8 0 8 2 -2 6
-10 4 -10 7 -1 13 14 8 66 0 53 -9z m23 -111 c8 0 14 -4 14 -10 0 -6 -27 -10
-60 -10 -33 0 -60 4 -60 9 0 13 30 20 64 15 16 -2 35 -4 42 -4z m-11 -40 c11
-5 14 -9 7 -9 -7 -1 -10 -5 -7 -11 6 -10 -28 -15 -70 -10 -26 3 -29 6 -22 25
7 17 58 20 92 5z"/>
<path d="M1357 3104 c-11 -12 -9 -184 4 -184 5 0 7 5 4 11 -5 7 7 8 38 4 28
-4 47 -3 51 4 5 7 -8 11 -38 11 -25 0 -46 4 -46 10 0 5 13 8 30 6 16 -2 27 1
24 5 -4 8 21 6 79 -6 11 -2 26 -1 35 3 11 5 1 9 -28 13 -41 5 -38 6 23 7 50 2
68 5 65 15 -3 8 -41 14 -124 17 -101 4 -112 6 -70 13 27 4 71 7 99 7 78 0 50
10 -54 19 -78 7 -84 8 -36 10 37 1 57 5 57 13 0 9 3 9 12 0 7 -7 21 -12 33
-11 20 0 20 0 0 9 -15 6 -5 9 34 9 30 1 52 3 50 5 -8 8 -234 17 -242 10z m46
-121 c-7 -2 -21 -2 -30 0 -10 3 -4 5 12 5 17 0 24 -2 18 -5z"/>
<path d="M2974 3104 c-7 -3 -10 -30 -8 -71 1 -37 -1 -75 -7 -84 -6 -12 -5 -19
4 -22 9 -4 9 -8 -2 -15 -7 -5 -10 -15 -7 -21 4 -6 2 -11 -5 -11 -8 0 -8 -4 -1
-12 14 -18 16 -30 4 -37 -14 -8 -25 -93 -14 -109 6 -9 45 -15 115 -19 l107 -6
0 206 0 207 -87 -1 c-49 0 -93 -3 -99 -5z"/>
<path d="M3240 3015 l0 -95 45 0 45 0 0 -310 0 -310 -45 0 -45 0 0 -95 0 -95
423 2 422 3 3 158 3 158 -123 -3 c-138 -3 -124 7 -127 -88 l-1 -40 -110 0
-109 0 -3 108 -3 107 -56 -3 c-34 -2 -59 1 -63 7 -8 13 -14 13 212 11 l172 -1
0 96 0 95 -129 0 c-150 0 -144 -5 -139 109 1 39 -1 73 -5 77 -10 10 -68 -17
-64 -30 2 -6 14 -13 28 -17 20 -6 21 -7 4 -9 -15 -1 -16 -3 -5 -7 33 -13 34
-43 2 -43 -9 0 -23 -4 -31 -9 -12 -8 -12 -12 2 -26 10 -9 15 -21 12 -26 -4 -5
-2 -9 4 -9 6 0 8 -7 5 -15 -8 -19 -43 -19 -68 0 -15 12 -16 15 -5 15 9 0 16 6
16 13 0 6 2 17 3 22 6 24 -1 35 -22 35 -21 1 -21 2 -6 13 11 9 14 18 8 27 -5
9 -1 19 13 31 18 15 19 18 5 19 -9 0 -24 7 -32 16 -17 17 -22 64 -7 64 10 0 9
46 -2 56 -3 3 -1 17 4 31 17 45 -1 53 -122 53 l-109 0 0 -95z m316 -386 c-15
-4 -37 -4 -49 1 -18 7 -19 9 -4 9 10 1 20 8 23 16 5 12 9 12 31 -2 l26 -17
-27 -7z"/>
<path d="M3948 3103 c-10 -2 -18 -10 -18 -18 0 -7 -7 -16 -16 -19 -21 -8 -8
-26 19 -27 20 -1 20 -2 -3 -9 -14 -4 -20 -9 -15 -9 6 -1 3 -6 -5 -11 -19 -13
-152 -2 -162 13 -4 6 1 17 10 24 16 11 15 12 -3 13 -17 0 -17 2 -5 10 12 8 9
10 -12 10 -15 0 -30 5 -33 10 -9 15 -84 12 -100 -4 -12 -12 -12 -15 2 -21 15
-5 15 -7 3 -15 -13 -9 -13 -10 0 -10 12 -1 12 -3 -2 -14 -36 -27 -18 -47 52
-57 l45 -6 -47 -2 c-27 0 -48 -5 -48 -10 0 -14 14 -16 75 -13 48 3 54 6 39 16
-15 12 -14 14 13 23 37 13 149 8 189 -8 l29 -12 -30 -7 -30 -6 30 -11 30 -11
-30 -1 c-66 -2 -75 -9 -75 -61 0 -58 4 -60 143 -60 l98 0 -3 153 -3 152 -60 2
c-33 0 -68 -1 -77 -4z"/>
<path d="M1578 3073 c6 -2 18 -2 25 0 6 3 1 5 -13 5 -14 0 -19 -2 -12 -5z"/>
<path d="M1563 2943 c9 -2 25 -2 35 0 9 3 1 5 -18 5 -19 0 -27 -2 -17 -5z"/>
<path d="M1396 2896 c1 -18 4 -38 8 -45 4 -7 2 -10 -5 -9 -6 2 -18 -17 -26
-42 -8 -25 -27 -85 -43 -135 -15 -49 -42 -137 -60 -195 -54 -181 -50 -174
-106 -180 l-49 -5 0 -90 0 -90 183 -3 c100 -1 203 2 230 7 l47 9 -49 1 c-27 0
-46 4 -42 8 4 4 25 6 46 4 24 -1 40 2 40 8 0 6 -17 12 -37 12 -31 2 -33 3 -10
6 15 2 25 9 22 14 -4 5 1 12 9 15 26 10 18 30 -11 31 -16 1 -48 6 -73 11 -37
8 -40 10 -15 11 51 2 105 13 105 21 0 5 -9 6 -20 3 -11 -3 -28 -2 -37 2 -16 7
-15 9 7 15 22 7 21 8 -12 9 -36 1 -37 2 -27 28 5 14 7 33 5 40 -3 8 -1 11 4 8
6 -3 10 -1 10 4 0 6 17 11 38 11 21 0 42 3 46 8 4 4 15 7 24 8 10 1 37 2 62 4
l45 3 -52 10 c-29 5 -53 14 -53 18 0 5 -5 9 -11 9 -5 0 -7 -4 -4 -10 3 -5 2
-10 -4 -10 -5 0 -13 5 -16 10 -4 7 -30 9 -63 6 -32 -2 -77 -1 -102 3 -34 5
-19 8 64 9 60 1 114 6 120 12 5 5 18 10 27 10 10 0 24 6 31 13 7 8 20 16 28
20 8 3 -33 6 -92 6 -59 1 -110 5 -113 11 -4 6 8 10 27 11 18 0 42 4 53 9 18 8
18 9 -5 10 -18 2 -20 4 -7 7 9 2 17 12 17 22 0 14 -14 17 -102 19 -57 2 -105
5 -107 8 -2 2 40 4 95 4 102 1 134 11 134 44 0 11 -9 16 -32 16 -25 0 -29 3
-18 10 10 6 -3 9 -43 9 -32 -1 -61 2 -64 5 -4 3 32 6 80 6 47 0 89 5 92 10 5
9 -33 16 -59 11 -5 -1 -27 1 -49 5 -60 10 -25 23 52 19 47 -3 57 -1 36 4 -16
5 -46 10 -65 12 -22 1 -9 5 34 8 103 9 95 27 -16 37 l-93 8 65 6 c36 4 52 7
37 8 -16 1 -26 6 -22 11 3 5 -4 11 -16 13 -12 2 -23 11 -25 21 -2 15 9 17 114
17 153 0 127 16 -30 19 -67 1 -129 6 -137 11 -13 7 -16 2 -15 -24z m51 -32
c-3 -3 -12 -4 -19 -1 -8 3 -5 6 6 6 11 1 17 -2 13 -5z m6 -101 c-7 -2 -19 -2
-25 0 -7 3 -2 5 12 5 14 0 19 -2 13 -5z m45 -200 c-10 -2 -26 -2 -35 0 -10 3
-2 5 17 5 19 0 27 -2 18 -5z m55 -140 c-7 -2 -19 -2 -25 0 -7 3 -2 5 12 5 14
0 19 -2 13 -5z m-106 -89 c-3 -3 -12 -4 -19 -1 -8 3 -5 6 6 6 11 1 17 -2 13
-5z"/>
<path d="M1688 2923 c6 -2 18 -2 25 0 6 3 1 5 -13 5 -14 0 -19 -2 -12 -5z"/>
<path d="M1553 2853 c15 -2 37 -2 50 0 12 2 0 4 -28 4 -27 0 -38 -2 -22 -4z"/>
<path d="M2700 2439 c0 -24 -4 -29 -24 -29 -16 0 -27 7 -31 21 -7 20 -26 22
-32 3 -2 -5 48 -40 111 -78 62 -37 140 -88 172 -112 32 -24 73 -49 91 -55 18
-6 33 -15 33 -21 0 -5 12 -7 28 -4 21 5 40 -3 87 -34 32 -21 61 -37 63 -35 3
2 -14 26 -37 53 -22 28 -41 53 -41 58 0 4 16 25 36 45 29 30 33 39 22 50 -7 8
-44 49 -82 92 l-70 78 -33 -38 -33 -38 -28 31 c-28 30 -33 31 -130 37 l-102 5
0 -29z m170 3 c0 -5 12 -14 27 -21 46 -21 13 -33 -78 -28 -113 7 -113 7 -96
24 8 8 26 15 40 17 15 1 30 6 34 9 9 10 73 9 73 -1z m22 -71 c-20 -12 -129
-14 -137 -1 -4 6 20 10 72 10 45 0 72 -4 65 -9z m-13 -51 l23 -19 -25 -6 c-27
-7 -90 22 -81 37 10 15 61 8 83 -12z"/>
<path d="M3050 2125 c0 -8 7 -15 16 -15 14 0 14 3 4 15 -7 8 -14 15 -16 15 -2
0 -4 -7 -4 -15z"/>
</g>
</svg>
